<?xml version="1.0" encoding="utf-8"?>
<!-- Generator: Adobe Illustrator 23.1.0, SVG Export Plug-In . SVG Version: 6.00 Build 0)  -->
<svg version="1.1" id="Layer_1" xmlns="http://www.w3.org/2000/svg" xmlns:xlink="http://www.w3.org/1999/xlink" x="0px" y="0px"
	 viewBox="0 0 542.87 77.47" style="enable-background:new 0 0 542.87 77.47;" xml:space="preserve">
<style type="text/css">
	.st0{fill:#F2F2F2;}
	.st1{fill:#EF6A25;}
	.st2{fill:#0F8D4A;}
	.st3{fill:#2D428D;}
	.st4{fill:#39498D;}
	.st5{fill:#1A1A1A;}
	.st6{fill:#FFFFFF;}
</style>
<g>
	<path class="st6" d="M0,70.46l5.94-7.09c3.79,3.02,8.03,4.62,12.48,4.62c2.86,0,4.4-0.99,4.4-2.64v-0.11
		c0-1.59-1.26-2.47-6.49-3.68c-8.19-1.87-14.52-4.18-14.52-12.1v-0.11c0-7.15,5.67-12.32,14.9-12.32c6.54,0,11.66,1.76,15.84,5.11
		l-5.33,7.53c-3.52-2.47-7.37-3.79-10.78-3.79c-2.58,0-3.85,1.1-3.85,2.47v0.11c0,1.76,1.32,2.53,6.65,3.74
		c8.85,1.92,14.35,4.78,14.35,11.99v0.11c0,7.86-6.21,12.54-15.56,12.54C11.22,76.84,4.73,74.7,0,70.46z"/>
	<path class="st6" d="M54.72,35.9H38.76V22.98h46.67V35.9H69.47v40.28H54.72V35.9z"/>
	<path class="st6" d="M95.16,11.78h51.79v15.18h-34.13v9.75h30.91v14.08h-30.91V61h34.59v15.18H95.16V11.78z"/>
	<path class="st6" d="M160.21,1.28h32.1c18.94,0,31.14,9.74,31.14,26.32v0.21c0,17.65-13.59,26.96-32.21,26.96h-10.27v21.4h-20.76
		V1.28z M190.81,38.52c7.38,0,11.88-3.85,11.88-9.74v-0.21c0-6.42-4.49-9.84-11.98-9.84h-9.74v19.79H190.81z"/>
	<path class="st6" d="M265.92,33.81h35.09v17.87h-35.09V33.81z"/>
	<path class="st6" d="M337.34,60.56l28.03-21.4c6.95-5.46,9.63-8.99,9.63-13.48c0-4.71-3.32-7.6-8.35-7.6
		c-5.03,0-8.99,2.89-14.87,9.63l-14.02-11.66C345.79,5.67,353.71,0,368.26,0c16.37,0,27.6,9.74,27.6,23.86v0.21
		c0,11.98-6.21,18.19-17.33,26.21l-12.84,8.99h30.92v16.91h-59.28V60.56z"/>
	<path class="st6" d="M407.56,44.17v-0.18c0-18.22,11.59-33.49,29.9-33.49c18.31,0,29.71,15.09,29.71,33.3v0.18
		c0,18.21-11.5,33.49-29.9,33.49C418.87,77.47,407.56,62.38,407.56,44.17z M449.23,44.17v-0.18c0-10.21-4.88-17.66-11.96-17.66
		c-7.08,0-11.78,7.18-11.78,17.48v0.18c0,10.3,4.78,17.66,11.96,17.66C444.63,61.65,449.23,54.38,449.23,44.17z"/>
	<path class="st6" d="M476.21,65.08l19.91-15.2c4.94-3.88,6.84-6.38,6.84-9.58c0-3.34-2.36-5.4-5.93-5.4s-6.38,2.05-10.56,6.84
		l-9.96-8.28c5.7-7.37,11.33-11.4,21.66-11.4c11.63,0,19.61,6.92,19.61,16.95v0.15c0,8.51-4.41,12.92-12.31,18.62l-9.12,6.38h21.96
		v12.01h-42.11V65.08z"/>
	<path class="st6" d="M532.37,47.36l-6.49,1.48l-2.03-8.25l11.27-3.19h7.75v38.77h-10.5V47.36z"/>
</g>
</svg>
